<svg width="24" height="24" viewBox="0 0 24 24" fill="none" xmlns="http://www.w3.org/2000/svg">
<path d="M21.3061 21.3942C21.4583 21.242 21.5271 20.9524 21.4597 20.7478L17.6714 9.27186L23.3906 3.55242C24.2031 2.73989 24.2031 1.42229 23.3906 0.609498C22.5778 -0.203299 21.2602 -0.203033 20.4477 0.609498L14.7282 6.32868L3.25219 2.54042C3.04739 2.47296 2.75806 2.54176 2.60579 2.69402L1.37939 3.92042C1.22713 4.07268 1.25726 4.27908 1.44686 4.38148L11.3399 9.7172L5.95859 15.0985L1.67006 14.9937C1.52659 14.9902 1.32766 15.0697 1.22606 15.1713L0.0609925 16.3361C-0.0406076 16.4377 -0.0123409 16.5569 0.123926 16.6025L5.57913 18.4209L7.39753 23.8761C7.44286 24.0123 7.56233 24.0406 7.66393 23.939L8.82873 22.7739C8.93033 22.6726 9.0098 22.4737 9.00633 22.3299L8.90153 18.0414L14.2831 12.6601L19.6186 22.5531C19.721 22.7427 19.9274 22.7731 20.0797 22.6206L21.3061 21.3942Z" fill="#B5BCBD"/>
</svg>
